# xmcd CD database file
#
# Track frame offsets:
#	150
#	9255
#	28065
#	69542
#	84695
#
# Disc length: 1948 seconds
#
# Revision: 0
# Processed by: cddbd v1.5PL3 Copyright (c) Steve Scherf et al.
# Submitted via: CDex 1.50
#
DISCID=35079a05
DTITLE=NEW-HERD and 富樫雅彦 - 牡羊座の詩
DYEAR=1971
DGENRE=Jazz
TTITLE0=?の詩
TTITLE1=?の詩
TTITLE2=III の詩
TTITLE3=?の詩
TTITLE4=?の詩
EXTD=YEAR: 1971
EXTT0=
EXTT1=
EXTT2=
EXTT3=
EXTT4=
PLAYORDER=
